<svg width="580" height="400" xmlns="http://www.w3.org/2000/svg">
 <!-- Created with Method Draw - http://github.com/duopixel/Method-Draw/ -->
 <defs>
  <filter height="200%" width="200%" y="-50%" x="-50%" id="svg_2_blur">
   <feGaussianBlur stdDeviation="0" in="SourceGraphic"/>
  </filter>
 </defs>
 
 <g>
  <title>Layer 1</title>
  <text filter="url(#svg_2_blur)" font-style="normal" font-weight="normal" stroke="#fcfcfc" transform="matrix(4.249661258996297,0,0,5.693338245546329,-98.10301070652123,-505.8443289196225) " xml:space="preserve" text-anchor="start" font-family="Helvetica, Arial, sans-serif" font-size="26" id="svg_2" y="133.226907" x="35.75862" stroke-width="0" fill="#12663a">fakebook</text>
  <path id="svg_6" d="m525.761001,140.661302c-1.804821,1.756642 -9.577256,3.984699 -10.579724,3.984699l-8.520038,0c-1.414028,0 -3.543566,0.243151 -4.546034,0.800579c0.115161,0.089321 0.230322,0.178642 0.341708,0.269616c0.770258,0.6269 2.571303,1.510183 4.164681,1.510183c0.749492,0 1.364943,-0.19022 1.887888,-0.585547c2.223932,-1.665667 3.379319,-1.86085 4.04952,-1.86085c0.794801,0 1.478216,0.319239 1.880336,0.878321c0.755155,1.035459 0.200116,2.390158 -0.36625,3.452083c-1.355504,2.520831 -5.773161,5.245115 -10.562733,5.245115c-0.003776,0 -0.003776,0 -0.007552,0c-0.668312,0 -1.323409,-0.054585 -1.950188,-0.163755l0,5.377442c0,1.227334 1.950188,4.189806 7.866829,4.189806s7.466597,-6.121782 7.466597,-7.175436l0,-7.463247c4.20999,-1.933629 8.518151,-2.98563 10.579724,-6.442675c1.938861,-3.24863 0.09817,-3.772976 -1.704763,-2.016334zm-13.234095,7.817222c1.502759,-2.810296 -0.100058,-2.810296 -2.907347,-0.702988s-6.919109,0.173679 -8.32181,-0.967642c-1.402701,-1.139667 -2.805402,-2.017988 -5.312517,-1.930321c-2.507115,0.087667 -8.41998,-0.266308 -11.831394,-0.967642c-3.407638,-0.702988 -9.241212,-4.962266 -9.722623,-3.862297c-0.502178,1.141321 0.398344,1.931975 2.205053,3.862297c1.802933,1.933629 9.581031,4.595058 9.581031,4.595058s0,5.711568 0,8.081877c0,2.373617 5.612691,5.97126 8.518151,5.97126s5.112401,-1.756642 5.112401,-2.987284l0,-7.463247c4.812226,2.199938 11.176297,-0.81712 12.679056,-3.62907zm-3.020621,-6.27065c3.292477,0 5.963838,-2.338881 5.963838,-5.223612c0,-2.886384 -2.671361,-5.225266 -5.963838,-5.225266s-5.96195,2.338881 -5.96195,5.225266c0,2.88473 2.669474,5.223612 5.96195,5.223612zm-15.712892,0c3.292477,0 5.96195,-2.338881 5.96195,-5.223612c0,-2.886384 -2.669474,-5.225266 -5.96195,-5.225266c-3.294365,0 -5.963838,2.338881 -5.963838,5.225266c0,2.88473 2.667586,5.223612 5.963838,5.223612z" stroke-opacity="null" stroke-width="0" stroke="#000" fill="#1f7f4e"/>
  <path stroke="#000" opacity="0.53" id="svg_7" d="m28.37249,145.42315l0,0c0,-15.580502 25.95816,-28.210997 57.97916,-28.210997l26.35418,0l0,0l126.50002,0l237.18747,0c15.37707,0 30.12429,2.972216 40.99751,8.262806c10.87316,5.290599 16.98169,12.466179 16.98169,19.948191l0,70.527492l0,0l0,42.316486l0,0c0,15.580511 -25.95814,28.211006 -57.97918,28.211006l-237.18747,0l-165.25667,71.734003l38.75665,-71.734003l-26.35418,0c-32.02101,0 -57.97916,-12.630495 -57.97916,-28.211006l-1,0l1,-42.316486l0,0l-0.00002,-70.527492z" stroke-opacity="null" stroke-width="0" fill="#627562"/>
 </g>
</svg>